<?xml version="1.0" encoding="UTF-8" standalone="no"?>
<!DOCTYPE svg PUBLIC "-//W3C//DTD SVG 1.1//EN"
 "http://www.w3.org/Graphics/SVG/1.1/DTD/svg11.dtd">
<!-- Generated by graphviz version 3.0.0 (20220226.1711)
 -->
<!-- Title: dependencies Pages: 1 -->
<svg width="438pt" height="247pt"
 viewBox="0.00 0.00 438.00 246.80" xmlns="http://www.w3.org/2000/svg" xmlns:xlink="http://www.w3.org/1999/xlink">
<g id="graph0" class="graph" transform="scale(1 1) rotate(0) translate(4 242.8)">
<title>dependencies</title>
<polygon fill="white" stroke="transparent" points="-4,4 -4,-242.8 434,-242.8 434,4 -4,4"/>
<text text-anchor="middle" x="215" y="-8.2" font-family="sans-serif" font-size="14.00">dependencies</text>
<g id="clust1" class="cluster">
<title>cluster_StateMachineModules</title>
<polygon fill="none" stroke="black" stroke-dasharray="1,5" points="8,-32.8 8,-230.8 422,-230.8 422,-32.8 8,-32.8"/>
</g>
<g id="clust6" class="cluster">
<title>cluster_StateMachineModules_providers</title>
<polygon fill="none" stroke="black" points="204,-40.8 204,-92.8 414,-92.8 414,-40.8 204,-40.8"/>
</g>
<g id="clust3" class="cluster">
<title>cluster_StateMachineModules_imports</title>
<polygon fill="none" stroke="black" points="16,-40.8 16,-92.8 196,-92.8 196,-40.8 16,-40.8"/>
</g>
<g id="clust4" class="cluster">
<title>cluster_StateMachineModules_exports</title>
<polygon fill="none" stroke="black" points="127,-170.8 127,-222.8 287,-222.8 287,-170.8 127,-170.8"/>
</g>
<!-- MongoConnectionModule -->
<g id="node1" class="node">
<title>MongoConnectionModule</title>
<polygon fill="#8dd3c7" stroke="black" points="188.05,-84.8 185.05,-88.8 164.05,-88.8 161.05,-84.8 23.95,-84.8 23.95,-48.8 188.05,-48.8 188.05,-84.8"/>
<text text-anchor="middle" x="106" y="-62.6" font-family="Times,serif" font-size="14.00">MongoConnectionModule</text>
</g>
<!-- StateMachineModules -->
<g id="node2" class="node">
<title>StateMachineModules</title>
<polygon fill="#8dd3c7" stroke="black" points="277.97,-149.8 274.97,-153.8 253.97,-153.8 250.97,-149.8 136.03,-149.8 136.03,-113.8 277.97,-113.8 277.97,-149.8"/>
<text text-anchor="middle" x="207" y="-127.6" font-family="Times,serif" font-size="14.00">StateMachineModules</text>
</g>
<!-- MongoConnectionModule&#45;&gt;StateMachineModules -->
<g id="edge1" class="edge">
<title>MongoConnectionModule&#45;&gt;StateMachineModules</title>
<path fill="none" stroke="black" d="M162.14,-84.91C162.14,-84.91 162.14,-103.79 162.14,-103.79"/>
<polygon fill="black" stroke="black" points="158.64,-103.79 162.14,-113.79 165.64,-103.79 158.64,-103.79"/>
</g>
<!-- StateMachinesService  -->
<g id="node3" class="node">
<title>StateMachinesService </title>
<polygon fill="#fb8072" stroke="black" points="278.9,-214.8 135.1,-214.8 135.1,-178.8 278.9,-178.8 278.9,-214.8"/>
<text text-anchor="middle" x="207" y="-192.6" font-family="Times,serif" font-size="14.00">StateMachinesService </text>
</g>
<!-- StateMachineModules&#45;&gt;StateMachinesService  -->
<g id="edge2" class="edge">
<title>StateMachineModules&#45;&gt;StateMachinesService </title>
<path fill="none" stroke="black" stroke-dasharray="5,2" d="M207,-149.91C207,-149.91 207,-168.79 207,-168.79"/>
<polygon fill="black" stroke="black" points="203.5,-168.79 207,-178.79 210.5,-168.79 203.5,-168.79"/>
</g>
<!-- StateMachinesService -->
<g id="node4" class="node">
<title>StateMachinesService</title>
<ellipse fill="#fdb462" stroke="black" cx="309" cy="-66.8" rx="96.69" ry="18"/>
<text text-anchor="middle" x="309" y="-62.6" font-family="Times,serif" font-size="14.00">StateMachinesService</text>
</g>
<!-- StateMachinesService&#45;&gt;StateMachineModules -->
<g id="edge3" class="edge">
<title>StateMachinesService&#45;&gt;StateMachineModules</title>
<path fill="none" stroke="black" d="M245.07,-80.58C245.07,-80.58 245.07,-103.35 245.07,-103.35"/>
<polygon fill="black" stroke="black" points="241.57,-103.35 245.07,-113.35 248.57,-103.35 241.57,-103.35"/>
</g>
</g>
</svg>
