<?xml version="1.0" encoding="UTF-8" standalone="no"?>
<!DOCTYPE svg PUBLIC "-//W3C//DTD SVG 1.1//EN"
 "http://www.w3.org/Graphics/SVG/1.1/DTD/svg11.dtd">
<!-- Generated by graphviz version 3.0.0 (20220226.1711)
 -->
<!-- Title: dependencies Pages: 1 -->
<svg width="1691pt" height="247pt"
 viewBox="0.00 0.00 1691.00 246.80" xmlns="http://www.w3.org/2000/svg" xmlns:xlink="http://www.w3.org/1999/xlink">
<g id="graph0" class="graph" transform="scale(1 1) rotate(0) translate(4 242.8)">
<title>dependencies</title>
<polygon fill="white" stroke="transparent" points="-4,4 -4,-242.8 1687,-242.8 1687,4 -4,4"/>
<text text-anchor="middle" x="841.5" y="-8.2" font-family="sans-serif" font-size="14.00">dependencies</text>
<g id="clust1" class="cluster">
<title>cluster_MongoConnectionModule</title>
<polygon fill="none" stroke="black" stroke-dasharray="1,5" points="8,-32.8 8,-230.8 1675,-230.8 1675,-32.8 8,-32.8"/>
</g>
<g id="clust6" class="cluster">
<title>cluster_MongoConnectionModule_providers</title>
<polygon fill="none" stroke="black" points="16,-40.8 16,-92.8 1667,-92.8 1667,-40.8 16,-40.8"/>
</g>
<g id="clust4" class="cluster">
<title>cluster_MongoConnectionModule_exports</title>
<polygon fill="none" stroke="black" points="216,-170.8 216,-222.8 1489,-222.8 1489,-170.8 216,-170.8"/>
</g>
<!-- ApiSyncMachinesService  -->
<g id="node1" class="node">
<title>ApiSyncMachinesService </title>
<polygon fill="#fb8072" stroke="black" points="1481.41,-214.8 1316.59,-214.8 1316.59,-178.8 1481.41,-178.8 1481.41,-214.8"/>
<text text-anchor="middle" x="1399" y="-192.6" font-family="Times,serif" font-size="14.00">ApiSyncMachinesService </text>
</g>
<!-- CWLService  -->
<g id="node2" class="node">
<title>CWLService </title>
<polygon fill="#fb8072" stroke="black" points="1298.08,-214.8 1205.92,-214.8 1205.92,-178.8 1298.08,-178.8 1298.08,-214.8"/>
<text text-anchor="middle" x="1252" y="-192.6" font-family="Times,serif" font-size="14.00">CWLService </text>
</g>
<!-- LabService  -->
<g id="node3" class="node">
<title>LabService </title>
<polygon fill="#fb8072" stroke="black" points="1187.75,-214.8 1104.25,-214.8 1104.25,-178.8 1187.75,-178.8 1187.75,-214.8"/>
<text text-anchor="middle" x="1146" y="-192.6" font-family="Times,serif" font-size="14.00">LabService </text>
</g>
<!-- SamplesService  -->
<g id="node4" class="node">
<title>SamplesService </title>
<polygon fill="#fb8072" stroke="black" points="1086.42,-214.8 977.58,-214.8 977.58,-178.8 1086.42,-178.8 1086.42,-214.8"/>
<text text-anchor="middle" x="1032" y="-192.6" font-family="Times,serif" font-size="14.00">SamplesService </text>
</g>
<!-- SatelliteMachineService  -->
<g id="node5" class="node">
<title>SatelliteMachineService </title>
<polygon fill="#fb8072" stroke="black" points="959.34,-214.8 802.66,-214.8 802.66,-178.8 959.34,-178.8 959.34,-214.8"/>
<text text-anchor="middle" x="881" y="-192.6" font-family="Times,serif" font-size="14.00">SatelliteMachineService </text>
</g>
<!-- SatelliteService  -->
<g id="node6" class="node">
<title>SatelliteService </title>
<polygon fill="#fb8072" stroke="black" points="784.86,-214.8 677.14,-214.8 677.14,-178.8 784.86,-178.8 784.86,-214.8"/>
<text text-anchor="middle" x="731" y="-192.6" font-family="Times,serif" font-size="14.00">SatelliteService </text>
</g>
<!-- SatelliteTasksService  -->
<g id="node7" class="node">
<title>SatelliteTasksService </title>
<polygon fill="#fb8072" stroke="black" points="659.02,-214.8 518.98,-214.8 518.98,-178.8 659.02,-178.8 659.02,-214.8"/>
<text text-anchor="middle" x="589" y="-192.6" font-family="Times,serif" font-size="14.00">SatelliteTasksService </text>
</g>
<!-- SubDomainService  -->
<g id="node8" class="node">
<title>SubDomainService </title>
<polygon fill="#fb8072" stroke="black" points="501.37,-214.8 372.63,-214.8 372.63,-178.8 501.37,-178.8 501.37,-214.8"/>
<text text-anchor="middle" x="437" y="-192.6" font-family="Times,serif" font-size="14.00">SubDomainService </text>
</g>
<!-- TasksQueueService  -->
<g id="node9" class="node">
<title>TasksQueueService </title>
<polygon fill="#fb8072" stroke="black" points="354.18,-214.8 223.82,-214.8 223.82,-178.8 354.18,-178.8 354.18,-214.8"/>
<text text-anchor="middle" x="289" y="-192.6" font-family="Times,serif" font-size="14.00">TasksQueueService </text>
</g>
<!-- MongoConnectionModule -->
<g id="node10" class="node">
<title>MongoConnectionModule</title>
<polygon fill="#8dd3c7" stroke="black" points="963.05,-149.8 960.05,-153.8 939.05,-153.8 936.05,-149.8 798.95,-149.8 798.95,-113.8 963.05,-113.8 963.05,-149.8"/>
<text text-anchor="middle" x="881" y="-127.6" font-family="Times,serif" font-size="14.00">MongoConnectionModule</text>
</g>
<!-- MongoConnectionModule&#45;&gt;ApiSyncMachinesService  -->
<g id="edge1" class="edge">
<title>MongoConnectionModule&#45;&gt;ApiSyncMachinesService </title>
<path fill="none" stroke="black" stroke-dasharray="5,2" d="M963.25,-133.8C1101.98,-133.8 1367.5,-133.8 1367.5,-133.8 1367.5,-133.8 1367.5,-168.58 1367.5,-168.58"/>
<polygon fill="black" stroke="black" points="1364,-168.58 1367.5,-178.58 1371,-168.58 1364,-168.58"/>
</g>
<!-- MongoConnectionModule&#45;&gt;CWLService  -->
<g id="edge2" class="edge">
<title>MongoConnectionModule&#45;&gt;CWLService </title>
<path fill="none" stroke="black" stroke-dasharray="5,2" d="M963.34,-137.8C1069.84,-137.8 1241.86,-137.8 1241.86,-137.8 1241.86,-137.8 1241.86,-168.78 1241.86,-168.78"/>
<polygon fill="black" stroke="black" points="1238.36,-168.78 1241.86,-178.78 1245.36,-168.78 1238.36,-168.78"/>
</g>
<!-- MongoConnectionModule&#45;&gt;LabService  -->
<g id="edge3" class="edge">
<title>MongoConnectionModule&#45;&gt;LabService </title>
<path fill="none" stroke="black" stroke-dasharray="5,2" d="M963.27,-141.8C1034.8,-141.8 1127.05,-141.8 1127.05,-141.8 1127.05,-141.8 1127.05,-168.79 1127.05,-168.79"/>
<polygon fill="black" stroke="black" points="1123.55,-168.79 1127.05,-178.79 1130.55,-168.79 1123.55,-168.79"/>
</g>
<!-- MongoConnectionModule&#45;&gt;SamplesService  -->
<g id="edge4" class="edge">
<title>MongoConnectionModule&#45;&gt;SamplesService </title>
<path fill="none" stroke="black" stroke-dasharray="5,2" d="M963.46,-145.8C974.43,-145.8 981.98,-145.8 981.98,-145.8 981.98,-145.8 981.98,-168.68 981.98,-168.68"/>
<polygon fill="black" stroke="black" points="978.48,-168.68 981.98,-178.68 985.48,-168.68 978.48,-168.68"/>
</g>
<!-- MongoConnectionModule&#45;&gt;SatelliteMachineService  -->
<g id="edge5" class="edge">
<title>MongoConnectionModule&#45;&gt;SatelliteMachineService </title>
<path fill="none" stroke="black" stroke-dasharray="5,2" d="M881,-149.91C881,-149.91 881,-168.79 881,-168.79"/>
<polygon fill="black" stroke="black" points="877.5,-168.79 881,-178.79 884.5,-168.79 877.5,-168.79"/>
</g>
<!-- MongoConnectionModule&#45;&gt;SatelliteService  -->
<g id="edge6" class="edge">
<title>MongoConnectionModule&#45;&gt;SatelliteService </title>
<path fill="none" stroke="black" stroke-dasharray="5,2" d="M798.63,-145.8C787.67,-145.8 780.13,-145.8 780.13,-145.8 780.13,-145.8 780.13,-168.68 780.13,-168.68"/>
<polygon fill="black" stroke="black" points="776.63,-168.68 780.13,-178.68 783.63,-168.68 776.63,-168.68"/>
</g>
<!-- MongoConnectionModule&#45;&gt;SatelliteTasksService  -->
<g id="edge7" class="edge">
<title>MongoConnectionModule&#45;&gt;SatelliteTasksService </title>
<path fill="none" stroke="black" stroke-dasharray="5,2" d="M798.63,-141.8C727.7,-141.8 636.69,-141.8 636.69,-141.8 636.69,-141.8 636.69,-168.79 636.69,-168.79"/>
<polygon fill="black" stroke="black" points="633.19,-168.79 636.69,-178.79 640.19,-168.79 633.19,-168.79"/>
</g>
<!-- MongoConnectionModule&#45;&gt;SubDomainService  -->
<g id="edge8" class="edge">
<title>MongoConnectionModule&#45;&gt;SubDomainService </title>
<path fill="none" stroke="black" stroke-dasharray="5,2" d="M798.77,-137.8C674.83,-137.8 454.51,-137.8 454.51,-137.8 454.51,-137.8 454.51,-168.78 454.51,-168.78"/>
<polygon fill="black" stroke="black" points="451.01,-168.78 454.51,-178.78 458.01,-168.78 451.01,-168.78"/>
</g>
<!-- MongoConnectionModule&#45;&gt;TasksQueueService  -->
<g id="edge9" class="edge">
<title>MongoConnectionModule&#45;&gt;TasksQueueService </title>
<path fill="none" stroke="black" stroke-dasharray="5,2" d="M798.68,-133.8C636.02,-133.8 289,-133.8 289,-133.8 289,-133.8 289,-168.58 289,-168.58"/>
<polygon fill="black" stroke="black" points="285.5,-168.58 289,-178.58 292.5,-168.58 285.5,-168.58"/>
</g>
<!-- ApiSyncMachinesService -->
<g id="node11" class="node">
<title>ApiSyncMachinesService</title>
<ellipse fill="#fdb462" stroke="black" cx="1548" cy="-66.8" rx="111.17" ry="18"/>
<text text-anchor="middle" x="1548" y="-62.6" font-family="Times,serif" font-size="14.00">ApiSyncMachinesService</text>
</g>
<!-- ApiSyncMachinesService&#45;&gt;MongoConnectionModule -->
<g id="edge10" class="edge">
<title>ApiSyncMachinesService&#45;&gt;MongoConnectionModule</title>
<path fill="none" stroke="black" d="M1459.06,-77.77C1459.06,-95.82 1459.06,-129.8 1459.06,-129.8 1459.06,-129.8 973.21,-129.8 973.21,-129.8"/>
<polygon fill="black" stroke="black" points="973.21,-126.3 963.21,-129.8 973.21,-133.3 973.21,-126.3"/>
</g>
<!-- CWLService -->
<g id="node12" class="node">
<title>CWLService</title>
<ellipse fill="#fdb462" stroke="black" cx="1357" cy="-66.8" rx="61.4" ry="18"/>
<text text-anchor="middle" x="1357" y="-62.6" font-family="Times,serif" font-size="14.00">CWLService</text>
</g>
<!-- CWLService&#45;&gt;MongoConnectionModule -->
<g id="edge11" class="edge">
<title>CWLService&#45;&gt;MongoConnectionModule</title>
<path fill="none" stroke="black" d="M1307.42,-77.62C1307.42,-94.65 1307.42,-125.8 1307.42,-125.8 1307.42,-125.8 973.22,-125.8 973.22,-125.8"/>
<polygon fill="black" stroke="black" points="973.22,-122.3 963.22,-125.8 973.22,-129.3 973.22,-122.3"/>
</g>
<!-- LabService -->
<g id="node13" class="node">
<title>LabService</title>
<ellipse fill="#fdb462" stroke="black" cx="1223" cy="-66.8" rx="55.01" ry="18"/>
<text text-anchor="middle" x="1223" y="-62.6" font-family="Times,serif" font-size="14.00">LabService</text>
</g>
<!-- LabService&#45;&gt;MongoConnectionModule -->
<g id="edge12" class="edge">
<title>LabService&#45;&gt;MongoConnectionModule</title>
<path fill="none" stroke="black" d="M1177.81,-77.15C1177.81,-93.08 1177.81,-121.8 1177.81,-121.8 1177.81,-121.8 973.28,-121.8 973.28,-121.8"/>
<polygon fill="black" stroke="black" points="973.28,-118.3 963.28,-121.8 973.28,-125.3 973.28,-118.3"/>
</g>
<!-- SamplesService -->
<g id="node14" class="node">
<title>SamplesService</title>
<ellipse fill="#fdb462" stroke="black" cx="1077" cy="-66.8" rx="72.94" ry="18"/>
<text text-anchor="middle" x="1077" y="-62.6" font-family="Times,serif" font-size="14.00">SamplesService</text>
</g>
<!-- SamplesService&#45;&gt;MongoConnectionModule -->
<g id="edge13" class="edge">
<title>SamplesService&#45;&gt;MongoConnectionModule</title>
<path fill="none" stroke="black" d="M1045.37,-83.22C1045.37,-98.13 1045.37,-117.8 1045.37,-117.8 1045.37,-117.8 973.19,-117.8 973.19,-117.8"/>
<polygon fill="black" stroke="black" points="973.19,-114.3 963.19,-117.8 973.19,-121.3 973.19,-114.3"/>
</g>
<!-- SatelliteMachineService -->
<g id="node15" class="node">
<title>SatelliteMachineService</title>
<ellipse fill="#fdb462" stroke="black" cx="881" cy="-66.8" rx="105.35" ry="18"/>
<text text-anchor="middle" x="881" y="-62.6" font-family="Times,serif" font-size="14.00">SatelliteMachineService</text>
</g>
<!-- SatelliteMachineService&#45;&gt;MongoConnectionModule -->
<g id="edge14" class="edge">
<title>SatelliteMachineService&#45;&gt;MongoConnectionModule</title>
<path fill="none" stroke="black" d="M881,-84.91C881,-84.91 881,-103.79 881,-103.79"/>
<polygon fill="black" stroke="black" points="877.5,-103.79 881,-113.79 884.5,-103.79 877.5,-103.79"/>
</g>
<!-- SatelliteService -->
<g id="node16" class="node">
<title>SatelliteService</title>
<ellipse fill="#fdb462" stroke="black" cx="686" cy="-66.8" rx="71.78" ry="18"/>
<text text-anchor="middle" x="686" y="-62.6" font-family="Times,serif" font-size="14.00">SatelliteService</text>
</g>
<!-- SatelliteService&#45;&gt;MongoConnectionModule -->
<g id="edge15" class="edge">
<title>SatelliteService&#45;&gt;MongoConnectionModule</title>
<path fill="none" stroke="black" d="M717.48,-83.22C717.48,-98.13 717.48,-117.8 717.48,-117.8 717.48,-117.8 788.76,-117.8 788.76,-117.8"/>
<polygon fill="black" stroke="black" points="788.76,-121.3 798.76,-117.8 788.76,-114.3 788.76,-121.3"/>
</g>
<!-- SatelliteTasksService -->
<g id="node17" class="node">
<title>SatelliteTasksService</title>
<ellipse fill="#fdb462" stroke="black" cx="502" cy="-66.8" rx="94.33" ry="18"/>
<text text-anchor="middle" x="502" y="-62.6" font-family="Times,serif" font-size="14.00">SatelliteTasksService</text>
</g>
<!-- SatelliteTasksService&#45;&gt;MongoConnectionModule -->
<g id="edge16" class="edge">
<title>SatelliteTasksService&#45;&gt;MongoConnectionModule</title>
<path fill="none" stroke="black" d="M557.58,-81.54C557.58,-97.83 557.58,-121.8 557.58,-121.8 557.58,-121.8 788.55,-121.8 788.55,-121.8"/>
<polygon fill="black" stroke="black" points="788.55,-125.3 798.55,-121.8 788.55,-118.3 788.55,-125.3"/>
</g>
<!-- SubDomainService -->
<g id="node18" class="node">
<title>SubDomainService</title>
<ellipse fill="#fdb462" stroke="black" cx="304" cy="-66.8" rx="86.27" ry="18"/>
<text text-anchor="middle" x="304" y="-62.6" font-family="Times,serif" font-size="14.00">SubDomainService</text>
</g>
<!-- SubDomainService&#45;&gt;MongoConnectionModule -->
<g id="edge17" class="edge">
<title>SubDomainService&#45;&gt;MongoConnectionModule</title>
<path fill="none" stroke="black" d="M381.47,-75C381.47,-91.22 381.47,-125.8 381.47,-125.8 381.47,-125.8 788.79,-125.8 788.79,-125.8"/>
<polygon fill="black" stroke="black" points="788.79,-129.3 798.79,-125.8 788.79,-122.3 788.79,-129.3"/>
</g>
<!-- TasksQueueService -->
<g id="node19" class="node">
<title>TasksQueueService</title>
<ellipse fill="#fdb462" stroke="black" cx="112" cy="-66.8" rx="87.95" ry="18"/>
<text text-anchor="middle" x="112" y="-62.6" font-family="Times,serif" font-size="14.00">TasksQueueService</text>
</g>
<!-- TasksQueueService&#45;&gt;MongoConnectionModule -->
<g id="edge18" class="edge">
<title>TasksQueueService&#45;&gt;MongoConnectionModule</title>
<path fill="none" stroke="black" d="M112,-85.02C112,-103.63 112,-129.8 112,-129.8 112,-129.8 788.7,-129.8 788.7,-129.8"/>
<polygon fill="black" stroke="black" points="788.7,-133.3 798.7,-129.8 788.7,-126.3 788.7,-133.3"/>
</g>
</g>
</svg>
