<?xml version="1.0" encoding="UTF-8" standalone="no"?>
<!DOCTYPE svg PUBLIC "-//W3C//DTD SVG 1.1//EN"
 "http://www.w3.org/Graphics/SVG/1.1/DTD/svg11.dtd">
<!-- Generated by graphviz version 3.0.0 (20220226.1711)
 -->
<!-- Title: dependencies Pages: 1 -->
<svg width="3548pt" height="253pt"
 viewBox="0.00 0.00 3548.00 252.80" xmlns="http://www.w3.org/2000/svg" xmlns:xlink="http://www.w3.org/1999/xlink">
<g id="graph0" class="graph" transform="scale(1 1) rotate(0) translate(4 248.8)">
<title>dependencies</title>
<polygon fill="white" stroke="transparent" points="-4,4 -4,-248.8 3544,-248.8 3544,4 -4,4"/>
<text text-anchor="middle" x="1770" y="-8.2" font-family="sans-serif" font-size="14.00">dependencies</text>
<g id="clust1" class="cluster">
<title>cluster_AppModule</title>
<polygon fill="none" stroke="black" stroke-dasharray="1,5" points="8,-32.8 8,-236.8 342,-236.8 342,-32.8 8,-32.8"/>
</g>
<g id="clust3" class="cluster">
<title>cluster_AppModule_imports</title>
<polygon fill="none" stroke="black" points="154,-40.8 154,-92.8 334,-92.8 334,-40.8 154,-40.8"/>
</g>
<g id="clust4" class="cluster">
<title>cluster_AppModule_exports</title>
<polygon fill="none" stroke="black" points="111,-176.8 111,-228.8 213,-228.8 213,-176.8 111,-176.8"/>
</g>
<g id="clust6" class="cluster">
<title>cluster_AppModule_providers</title>
<polygon fill="none" stroke="black" points="16,-40.8 16,-92.8 146,-92.8 146,-40.8 16,-40.8"/>
</g>
<g id="clust7" class="cluster">
<title>cluster_MongoConnectionModule</title>
<polygon fill="none" stroke="black" stroke-dasharray="1,5" points="350,-100.8 350,-168.8 3298,-168.8 3298,-100.8 350,-100.8"/>
</g>
<g id="clust10" class="cluster">
<title>cluster_MongoConnectionModule_exports</title>
<polygon fill="none" stroke="black" points="2017,-108.8 2017,-160.8 3290,-160.8 3290,-108.8 2017,-108.8"/>
</g>
<g id="clust12" class="cluster">
<title>cluster_MongoConnectionModule_providers</title>
<polygon fill="none" stroke="black" points="358,-108.8 358,-160.8 2009,-160.8 2009,-108.8 358,-108.8"/>
</g>
<g id="clust19" class="cluster">
<title>cluster_StateMachineModules</title>
<polygon fill="none" stroke="black" stroke-dasharray="1,5" points="3306,-32.8 3306,-236.8 3532,-236.8 3532,-32.8 3306,-32.8"/>
</g>
<g id="clust22" class="cluster">
<title>cluster_StateMachineModules_exports</title>
<polygon fill="none" stroke="black" points="3326,-176.8 3326,-228.8 3486,-228.8 3486,-176.8 3326,-176.8"/>
</g>
<g id="clust24" class="cluster">
<title>cluster_StateMachineModules_providers</title>
<polygon fill="none" stroke="black" points="3314,-40.8 3314,-92.8 3524,-92.8 3524,-40.8 3314,-40.8"/>
</g>
<!-- MongoConnectionModule -->
<g id="node1" class="node">
<title>MongoConnectionModule</title>
<polygon fill="#8dd3c7" stroke="black" points="326.05,-84.8 323.05,-88.8 302.05,-88.8 299.05,-84.8 161.95,-84.8 161.95,-48.8 326.05,-48.8 326.05,-84.8"/>
<text text-anchor="middle" x="244" y="-62.6" font-family="Times,serif" font-size="14.00">MongoConnectionModule</text>
</g>
<!-- AppModule -->
<g id="node2" class="node">
<title>AppModule</title>
<polygon fill="#8dd3c7" stroke="black" points="203.66,-152.8 200.66,-156.8 179.66,-156.8 176.66,-152.8 120.34,-152.8 120.34,-116.8 203.66,-116.8 203.66,-152.8"/>
<text text-anchor="middle" x="162" y="-130.6" font-family="Times,serif" font-size="14.00">AppModule</text>
</g>
<!-- MongoConnectionModule&#45;&gt;AppModule -->
<g id="edge1" class="edge">
<title>MongoConnectionModule&#45;&gt;AppModule</title>
<path fill="none" stroke="black" d="M182.78,-85.02C182.78,-85.02 182.78,-106.53 182.78,-106.53"/>
<polygon fill="black" stroke="black" points="179.28,-106.53 182.78,-116.53 186.28,-106.53 179.28,-106.53"/>
</g>
<!-- ApiSyncMachinesService  -->
<g id="node5" class="node">
<title>ApiSyncMachinesService </title>
<polygon fill="#fb8072" stroke="black" points="3282.41,-152.8 3117.59,-152.8 3117.59,-116.8 3282.41,-116.8 3282.41,-152.8"/>
<text text-anchor="middle" x="3200" y="-130.6" font-family="Times,serif" font-size="14.00">ApiSyncMachinesService </text>
</g>
<!-- MongoConnectionModule&#45;&gt;ApiSyncMachinesService  -->
<g id="edge4" class="edge">
<title>MongoConnectionModule&#45;&gt;ApiSyncMachinesService </title>
<path fill="none" stroke="black" stroke-dasharray="5,2" d="M326.15,-52.8C803.56,-52.8 3200,-52.8 3200,-52.8 3200,-52.8 3200,-106.6 3200,-106.6"/>
<polygon fill="black" stroke="black" points="3196.5,-106.6 3200,-116.6 3203.5,-106.6 3196.5,-106.6"/>
</g>
<!-- CWLService  -->
<g id="node6" class="node">
<title>CWLService </title>
<polygon fill="#fb8072" stroke="black" points="3099.08,-152.8 3006.92,-152.8 3006.92,-116.8 3099.08,-116.8 3099.08,-152.8"/>
<text text-anchor="middle" x="3053" y="-130.6" font-family="Times,serif" font-size="14.00">CWLService </text>
</g>
<!-- MongoConnectionModule&#45;&gt;CWLService  -->
<g id="edge5" class="edge">
<title>MongoConnectionModule&#45;&gt;CWLService </title>
<path fill="none" stroke="black" stroke-dasharray="5,2" d="M326.17,-54.8C789.3,-54.8 3053,-54.8 3053,-54.8 3053,-54.8 3053,-106.65 3053,-106.65"/>
<polygon fill="black" stroke="black" points="3049.5,-106.65 3053,-116.65 3056.5,-106.65 3049.5,-106.65"/>
</g>
<!-- LabService  -->
<g id="node7" class="node">
<title>LabService </title>
<polygon fill="#fb8072" stroke="black" points="2988.75,-152.8 2905.25,-152.8 2905.25,-116.8 2988.75,-116.8 2988.75,-152.8"/>
<text text-anchor="middle" x="2947" y="-130.6" font-family="Times,serif" font-size="14.00">LabService </text>
</g>
<!-- MongoConnectionModule&#45;&gt;LabService  -->
<g id="edge6" class="edge">
<title>MongoConnectionModule&#45;&gt;LabService </title>
<path fill="none" stroke="black" stroke-dasharray="5,2" d="M326.37,-56.8C779.37,-56.8 2947,-56.8 2947,-56.8 2947,-56.8 2947,-106.71 2947,-106.71"/>
<polygon fill="black" stroke="black" points="2943.5,-106.71 2947,-116.71 2950.5,-106.71 2943.5,-106.71"/>
</g>
<!-- SamplesService  -->
<g id="node8" class="node">
<title>SamplesService </title>
<polygon fill="#fb8072" stroke="black" points="2887.42,-152.8 2778.58,-152.8 2778.58,-116.8 2887.42,-116.8 2887.42,-152.8"/>
<text text-anchor="middle" x="2833" y="-130.6" font-family="Times,serif" font-size="14.00">SamplesService </text>
</g>
<!-- MongoConnectionModule&#45;&gt;SamplesService  -->
<g id="edge7" class="edge">
<title>MongoConnectionModule&#45;&gt;SamplesService </title>
<path fill="none" stroke="black" stroke-dasharray="5,2" d="M326.12,-58.8C766.97,-58.8 2833,-58.8 2833,-58.8 2833,-58.8 2833,-106.79 2833,-106.79"/>
<polygon fill="black" stroke="black" points="2829.5,-106.79 2833,-116.79 2836.5,-106.79 2829.5,-106.79"/>
</g>
<!-- SatelliteMachineService  -->
<g id="node9" class="node">
<title>SatelliteMachineService </title>
<polygon fill="#fb8072" stroke="black" points="2760.34,-152.8 2603.66,-152.8 2603.66,-116.8 2760.34,-116.8 2760.34,-152.8"/>
<text text-anchor="middle" x="2682" y="-130.6" font-family="Times,serif" font-size="14.00">SatelliteMachineService </text>
</g>
<!-- MongoConnectionModule&#45;&gt;SatelliteMachineService  -->
<g id="edge8" class="edge">
<title>MongoConnectionModule&#45;&gt;SatelliteMachineService </title>
<path fill="none" stroke="black" stroke-dasharray="5,2" d="M326.16,-60.8C751.33,-60.8 2682,-60.8 2682,-60.8 2682,-60.8 2682,-106.51 2682,-106.51"/>
<polygon fill="black" stroke="black" points="2678.5,-106.51 2682,-116.51 2685.5,-106.51 2678.5,-106.51"/>
</g>
<!-- SatelliteService  -->
<g id="node10" class="node">
<title>SatelliteService </title>
<polygon fill="#fb8072" stroke="black" points="2585.86,-152.8 2478.14,-152.8 2478.14,-116.8 2585.86,-116.8 2585.86,-152.8"/>
<text text-anchor="middle" x="2532" y="-130.6" font-family="Times,serif" font-size="14.00">SatelliteService </text>
</g>
<!-- MongoConnectionModule&#45;&gt;SatelliteService  -->
<g id="edge9" class="edge">
<title>MongoConnectionModule&#45;&gt;SatelliteService </title>
<path fill="none" stroke="black" stroke-dasharray="5,2" d="M326.11,-62.8C734.99,-62.8 2532,-62.8 2532,-62.8 2532,-62.8 2532,-106.63 2532,-106.63"/>
<polygon fill="black" stroke="black" points="2528.5,-106.63 2532,-116.63 2535.5,-106.63 2528.5,-106.63"/>
</g>
<!-- SatelliteTasksService  -->
<g id="node11" class="node">
<title>SatelliteTasksService </title>
<polygon fill="#fb8072" stroke="black" points="2460.02,-152.8 2319.98,-152.8 2319.98,-116.8 2460.02,-116.8 2460.02,-152.8"/>
<text text-anchor="middle" x="2390" y="-130.6" font-family="Times,serif" font-size="14.00">SatelliteTasksService </text>
</g>
<!-- MongoConnectionModule&#45;&gt;SatelliteTasksService  -->
<g id="edge10" class="edge">
<title>MongoConnectionModule&#45;&gt;SatelliteTasksService </title>
<path fill="none" stroke="black" stroke-dasharray="5,2" d="M326.16,-64.8C719.35,-64.8 2390,-64.8 2390,-64.8 2390,-64.8 2390,-106.77 2390,-106.77"/>
<polygon fill="black" stroke="black" points="2386.5,-106.77 2390,-116.77 2393.5,-106.77 2386.5,-106.77"/>
</g>
<!-- SubDomainService  -->
<g id="node12" class="node">
<title>SubDomainService </title>
<polygon fill="#fb8072" stroke="black" points="2302.37,-152.8 2173.63,-152.8 2173.63,-116.8 2302.37,-116.8 2302.37,-152.8"/>
<text text-anchor="middle" x="2238" y="-130.6" font-family="Times,serif" font-size="14.00">SubDomainService </text>
</g>
<!-- MongoConnectionModule&#45;&gt;SubDomainService  -->
<g id="edge11" class="edge">
<title>MongoConnectionModule&#45;&gt;SubDomainService </title>
<path fill="none" stroke="black" stroke-dasharray="5,2" d="M326.2,-66.8C701.96,-66.8 2238,-66.8 2238,-66.8 2238,-66.8 2238,-106.58 2238,-106.58"/>
<polygon fill="black" stroke="black" points="2234.5,-106.58 2238,-116.58 2241.5,-106.58 2234.5,-106.58"/>
</g>
<!-- TasksQueueService  -->
<g id="node13" class="node">
<title>TasksQueueService </title>
<polygon fill="#fb8072" stroke="black" points="2155.18,-152.8 2024.82,-152.8 2024.82,-116.8 2155.18,-116.8 2155.18,-152.8"/>
<text text-anchor="middle" x="2090" y="-130.6" font-family="Times,serif" font-size="14.00">TasksQueueService </text>
</g>
<!-- MongoConnectionModule&#45;&gt;TasksQueueService  -->
<g id="edge12" class="edge">
<title>MongoConnectionModule&#45;&gt;TasksQueueService </title>
<path fill="none" stroke="black" stroke-dasharray="5,2" d="M326.3,-67.8C684.53,-67.8 2090,-67.8 2090,-67.8 2090,-67.8 2090,-106.49 2090,-106.49"/>
<polygon fill="black" stroke="black" points="2086.5,-106.49 2090,-116.49 2093.5,-106.49 2086.5,-106.49"/>
</g>
<!-- StateMachineModules -->
<g id="node23" class="node">
<title>StateMachineModules</title>
<polygon fill="#8dd3c7" stroke="black" points="3476.97,-152.8 3473.97,-156.8 3452.97,-156.8 3449.97,-152.8 3335.03,-152.8 3335.03,-116.8 3476.97,-116.8 3476.97,-152.8"/>
<text text-anchor="middle" x="3406" y="-130.6" font-family="Times,serif" font-size="14.00">StateMachineModules</text>
</g>
<!-- MongoConnectionModule&#45;&gt;StateMachineModules -->
<g id="edge22" class="edge">
<title>MongoConnectionModule&#45;&gt;StateMachineModules</title>
<path fill="none" stroke="black" d="M326.2,-50.8C813.51,-50.8 3302.3,-50.8 3302.3,-50.8 3302.3,-50.8 3302.3,-134.8 3302.3,-134.8 3302.3,-134.8 3324.83,-134.8 3324.83,-134.8"/>
<polygon fill="black" stroke="black" points="3324.83,-138.3 3334.83,-134.8 3324.83,-131.3 3324.83,-138.3"/>
</g>
<!-- AppService  -->
<g id="node3" class="node">
<title>AppService </title>
<polygon fill="#fb8072" stroke="black" points="204.59,-220.8 119.41,-220.8 119.41,-184.8 204.59,-184.8 204.59,-220.8"/>
<text text-anchor="middle" x="162" y="-198.6" font-family="Times,serif" font-size="14.00">AppService </text>
</g>
<!-- AppModule&#45;&gt;AppService  -->
<g id="edge2" class="edge">
<title>AppModule&#45;&gt;AppService </title>
<path fill="none" stroke="black" stroke-dasharray="5,2" d="M162,-153.02C162,-153.02 162,-174.53 162,-174.53"/>
<polygon fill="black" stroke="black" points="158.5,-174.53 162,-184.53 165.5,-174.53 158.5,-174.53"/>
</g>
<!-- AppService -->
<g id="node4" class="node">
<title>AppService</title>
<ellipse fill="#fdb462" stroke="black" cx="81" cy="-66.8" rx="56.75" ry="18"/>
<text text-anchor="middle" x="81" y="-62.6" font-family="Times,serif" font-size="14.00">AppService</text>
</g>
<!-- AppService&#45;&gt;AppModule -->
<g id="edge3" class="edge">
<title>AppService&#45;&gt;AppModule</title>
<path fill="none" stroke="black" d="M128.9,-76.54C128.9,-76.54 128.9,-106.64 128.9,-106.64"/>
<polygon fill="black" stroke="black" points="125.4,-106.64 128.9,-116.64 132.4,-106.64 125.4,-106.64"/>
</g>
<!-- ApiSyncMachinesService -->
<g id="node14" class="node">
<title>ApiSyncMachinesService</title>
<ellipse fill="#fdb462" stroke="black" cx="1890" cy="-134.8" rx="111.17" ry="18"/>
<text text-anchor="middle" x="1890" y="-130.6" font-family="Times,serif" font-size="14.00">ApiSyncMachinesService</text>
</g>
<!-- ApiSyncMachinesService&#45;&gt;MongoConnectionModule -->
<g id="edge13" class="edge">
<title>ApiSyncMachinesService&#45;&gt;MongoConnectionModule</title>
<path fill="none" stroke="black" d="M1890,-116.69C1890,-97.46 1890,-69.8 1890,-69.8 1890,-69.8 336.19,-69.8 336.19,-69.8"/>
<polygon fill="black" stroke="black" points="336.19,-66.3 326.19,-69.8 336.19,-73.3 336.19,-66.3"/>
</g>
<!-- CWLService -->
<g id="node15" class="node">
<title>CWLService</title>
<ellipse fill="#fdb462" stroke="black" cx="1699" cy="-134.8" rx="61.4" ry="18"/>
<text text-anchor="middle" x="1699" y="-130.6" font-family="Times,serif" font-size="14.00">CWLService</text>
</g>
<!-- CWLService&#45;&gt;MongoConnectionModule -->
<g id="edge14" class="edge">
<title>CWLService&#45;&gt;MongoConnectionModule</title>
<path fill="none" stroke="black" d="M1699,-116.58C1699,-97.97 1699,-71.8 1699,-71.8 1699,-71.8 336.13,-71.8 336.13,-71.8"/>
<polygon fill="black" stroke="black" points="336.13,-68.3 326.13,-71.8 336.13,-75.3 336.13,-68.3"/>
</g>
<!-- LabService -->
<g id="node16" class="node">
<title>LabService</title>
<ellipse fill="#fdb462" stroke="black" cx="1565" cy="-134.8" rx="55.01" ry="18"/>
<text text-anchor="middle" x="1565" y="-130.6" font-family="Times,serif" font-size="14.00">LabService</text>
</g>
<!-- LabService&#45;&gt;MongoConnectionModule -->
<g id="edge15" class="edge">
<title>LabService&#45;&gt;MongoConnectionModule</title>
<path fill="none" stroke="black" d="M1565,-116.5C1565,-98.53 1565,-73.8 1565,-73.8 1565,-73.8 336.14,-73.8 336.14,-73.8"/>
<polygon fill="black" stroke="black" points="336.14,-70.3 326.14,-73.8 336.14,-77.3 336.14,-70.3"/>
</g>
<!-- SamplesService -->
<g id="node17" class="node">
<title>SamplesService</title>
<ellipse fill="#fdb462" stroke="black" cx="1419" cy="-134.8" rx="72.94" ry="18"/>
<text text-anchor="middle" x="1419" y="-130.6" font-family="Times,serif" font-size="14.00">SamplesService</text>
</g>
<!-- SamplesService&#45;&gt;MongoConnectionModule -->
<g id="edge16" class="edge">
<title>SamplesService&#45;&gt;MongoConnectionModule</title>
<path fill="none" stroke="black" d="M1419,-116.78C1419,-99.43 1419,-75.8 1419,-75.8 1419,-75.8 336.16,-75.8 336.16,-75.8"/>
<polygon fill="black" stroke="black" points="336.16,-72.3 326.16,-75.8 336.16,-79.3 336.16,-72.3"/>
</g>
<!-- SatelliteMachineService -->
<g id="node18" class="node">
<title>SatelliteMachineService</title>
<ellipse fill="#fdb462" stroke="black" cx="1223" cy="-134.8" rx="105.35" ry="18"/>
<text text-anchor="middle" x="1223" y="-130.6" font-family="Times,serif" font-size="14.00">SatelliteMachineService</text>
</g>
<!-- SatelliteMachineService&#45;&gt;MongoConnectionModule -->
<g id="edge17" class="edge">
<title>SatelliteMachineService&#45;&gt;MongoConnectionModule</title>
<path fill="none" stroke="black" d="M1223,-116.76C1223,-100.07 1223,-77.8 1223,-77.8 1223,-77.8 336.2,-77.8 336.2,-77.8"/>
<polygon fill="black" stroke="black" points="336.2,-74.3 326.2,-77.8 336.2,-81.3 336.2,-74.3"/>
</g>
<!-- SatelliteService -->
<g id="node19" class="node">
<title>SatelliteService</title>
<ellipse fill="#fdb462" stroke="black" cx="1028" cy="-134.8" rx="71.78" ry="18"/>
<text text-anchor="middle" x="1028" y="-130.6" font-family="Times,serif" font-size="14.00">SatelliteService</text>
</g>
<!-- SatelliteService&#45;&gt;MongoConnectionModule -->
<g id="edge18" class="edge">
<title>SatelliteService&#45;&gt;MongoConnectionModule</title>
<path fill="none" stroke="black" d="M1028,-116.79C1028,-100.75 1028,-79.8 1028,-79.8 1028,-79.8 336.05,-79.8 336.05,-79.8"/>
<polygon fill="black" stroke="black" points="336.05,-76.3 326.05,-79.8 336.05,-83.3 336.05,-76.3"/>
</g>
<!-- SatelliteTasksService -->
<g id="node20" class="node">
<title>SatelliteTasksService</title>
<ellipse fill="#fdb462" stroke="black" cx="844" cy="-134.8" rx="94.33" ry="18"/>
<text text-anchor="middle" x="844" y="-130.6" font-family="Times,serif" font-size="14.00">SatelliteTasksService</text>
</g>
<!-- SatelliteTasksService&#45;&gt;MongoConnectionModule -->
<g id="edge19" class="edge">
<title>SatelliteTasksService&#45;&gt;MongoConnectionModule</title>
<path fill="none" stroke="black" d="M844,-116.56C844,-101.23 844,-81.8 844,-81.8 844,-81.8 336.17,-81.8 336.17,-81.8"/>
<polygon fill="black" stroke="black" points="336.17,-78.3 326.17,-81.8 336.17,-85.3 336.17,-78.3"/>
</g>
<!-- SubDomainService -->
<g id="node21" class="node">
<title>SubDomainService</title>
<ellipse fill="#fdb462" stroke="black" cx="646" cy="-134.8" rx="86.27" ry="18"/>
<text text-anchor="middle" x="646" y="-130.6" font-family="Times,serif" font-size="14.00">SubDomainService</text>
</g>
<!-- SubDomainService&#45;&gt;MongoConnectionModule -->
<g id="edge20" class="edge">
<title>SubDomainService&#45;&gt;MongoConnectionModule</title>
<path fill="none" stroke="black" d="M646,-116.68C646,-102.02 646,-83.8 646,-83.8 646,-83.8 336.32,-83.8 336.32,-83.8"/>
<polygon fill="black" stroke="black" points="336.32,-80.3 326.32,-83.8 336.32,-87.3 336.32,-80.3"/>
</g>
<!-- TasksQueueService -->
<g id="node22" class="node">
<title>TasksQueueService</title>
<ellipse fill="#fdb462" stroke="black" cx="454" cy="-134.8" rx="87.95" ry="18"/>
<text text-anchor="middle" x="454" y="-130.6" font-family="Times,serif" font-size="14.00">TasksQueueService</text>
</g>
<!-- TasksQueueService&#45;&gt;MongoConnectionModule -->
<g id="edge21" class="edge">
<title>TasksQueueService&#45;&gt;MongoConnectionModule</title>
<path fill="none" stroke="black" d="M366.11,-134.8C316.98,-134.8 265.53,-134.8 265.53,-134.8 265.53,-134.8 265.53,-95.02 265.53,-95.02"/>
<polygon fill="black" stroke="black" points="269.03,-95.02 265.53,-85.02 262.03,-95.02 269.03,-95.02"/>
</g>
<!-- StateMachinesService  -->
<g id="node24" class="node">
<title>StateMachinesService </title>
<polygon fill="#fb8072" stroke="black" points="3477.9,-220.8 3334.1,-220.8 3334.1,-184.8 3477.9,-184.8 3477.9,-220.8"/>
<text text-anchor="middle" x="3406" y="-198.6" font-family="Times,serif" font-size="14.00">StateMachinesService </text>
</g>
<!-- StateMachineModules&#45;&gt;StateMachinesService  -->
<g id="edge23" class="edge">
<title>StateMachineModules&#45;&gt;StateMachinesService </title>
<path fill="none" stroke="black" stroke-dasharray="5,2" d="M3406,-153.02C3406,-153.02 3406,-174.53 3406,-174.53"/>
<polygon fill="black" stroke="black" points="3402.5,-174.53 3406,-184.53 3409.5,-174.53 3402.5,-174.53"/>
</g>
<!-- StateMachinesService -->
<g id="node25" class="node">
<title>StateMachinesService</title>
<ellipse fill="#fdb462" stroke="black" cx="3419" cy="-66.8" rx="96.69" ry="18"/>
<text text-anchor="middle" x="3419" y="-62.6" font-family="Times,serif" font-size="14.00">StateMachinesService</text>
</g>
<!-- StateMachinesService&#45;&gt;StateMachineModules -->
<g id="edge24" class="edge">
<title>StateMachinesService&#45;&gt;StateMachineModules</title>
<path fill="none" stroke="black" d="M3406,-84.67C3406,-84.67 3406,-106.34 3406,-106.34"/>
<polygon fill="black" stroke="black" points="3402.5,-106.34 3406,-116.34 3409.5,-106.34 3402.5,-106.34"/>
</g>
</g>
</svg>
