<?xml version="1.0" encoding="UTF-8" standalone="no"?>
<!DOCTYPE svg PUBLIC "-//W3C//DTD SVG 1.1//EN"
 "http://www.w3.org/Graphics/SVG/1.1/DTD/svg11.dtd">
<!-- Generated by graphviz version 3.0.0 (20220226.1711)
 -->
<!-- Title: dependencies Pages: 1 -->
<svg width="358pt" height="247pt"
 viewBox="0.00 0.00 358.00 246.80" xmlns="http://www.w3.org/2000/svg" xmlns:xlink="http://www.w3.org/1999/xlink">
<g id="graph0" class="graph" transform="scale(1 1) rotate(0) translate(4 242.8)">
<title>dependencies</title>
<polygon fill="white" stroke="transparent" points="-4,4 -4,-242.8 354,-242.8 354,4 -4,4"/>
<text text-anchor="middle" x="175" y="-8.2" font-family="sans-serif" font-size="14.00">dependencies</text>
<g id="clust1" class="cluster">
<title>cluster_AppModule</title>
<polygon fill="none" stroke="black" stroke-dasharray="1,5" points="8,-32.8 8,-230.8 342,-230.8 342,-32.8 8,-32.8"/>
</g>
<g id="clust3" class="cluster">
<title>cluster_AppModule_imports</title>
<polygon fill="none" stroke="black" points="154,-40.8 154,-92.8 334,-92.8 334,-40.8 154,-40.8"/>
</g>
<g id="clust4" class="cluster">
<title>cluster_AppModule_exports</title>
<polygon fill="none" stroke="black" points="111,-170.8 111,-222.8 213,-222.8 213,-170.8 111,-170.8"/>
</g>
<g id="clust6" class="cluster">
<title>cluster_AppModule_providers</title>
<polygon fill="none" stroke="black" points="16,-40.8 16,-92.8 146,-92.8 146,-40.8 16,-40.8"/>
</g>
<!-- MongoConnectionModule -->
<g id="node1" class="node">
<title>MongoConnectionModule</title>
<polygon fill="#8dd3c7" stroke="black" points="326.05,-84.8 323.05,-88.8 302.05,-88.8 299.05,-84.8 161.95,-84.8 161.95,-48.8 326.05,-48.8 326.05,-84.8"/>
<text text-anchor="middle" x="244" y="-62.6" font-family="Times,serif" font-size="14.00">MongoConnectionModule</text>
</g>
<!-- AppModule -->
<g id="node2" class="node">
<title>AppModule</title>
<polygon fill="#8dd3c7" stroke="black" points="203.66,-149.8 200.66,-153.8 179.66,-153.8 176.66,-149.8 120.34,-149.8 120.34,-113.8 203.66,-113.8 203.66,-149.8"/>
<text text-anchor="middle" x="162" y="-127.6" font-family="Times,serif" font-size="14.00">AppModule</text>
</g>
<!-- MongoConnectionModule&#45;&gt;AppModule -->
<g id="edge1" class="edge">
<title>MongoConnectionModule&#45;&gt;AppModule</title>
<path fill="none" stroke="black" d="M182.78,-84.91C182.78,-84.91 182.78,-103.79 182.78,-103.79"/>
<polygon fill="black" stroke="black" points="179.28,-103.79 182.78,-113.79 186.28,-103.79 179.28,-103.79"/>
</g>
<!-- AppService  -->
<g id="node3" class="node">
<title>AppService </title>
<polygon fill="#fb8072" stroke="black" points="204.59,-214.8 119.41,-214.8 119.41,-178.8 204.59,-178.8 204.59,-214.8"/>
<text text-anchor="middle" x="162" y="-192.6" font-family="Times,serif" font-size="14.00">AppService </text>
</g>
<!-- AppModule&#45;&gt;AppService  -->
<g id="edge2" class="edge">
<title>AppModule&#45;&gt;AppService </title>
<path fill="none" stroke="black" stroke-dasharray="5,2" d="M162,-149.91C162,-149.91 162,-168.79 162,-168.79"/>
<polygon fill="black" stroke="black" points="158.5,-168.79 162,-178.79 165.5,-168.79 158.5,-168.79"/>
</g>
<!-- AppService -->
<g id="node4" class="node">
<title>AppService</title>
<ellipse fill="#fdb462" stroke="black" cx="81" cy="-66.8" rx="56.75" ry="18"/>
<text text-anchor="middle" x="81" y="-62.6" font-family="Times,serif" font-size="14.00">AppService</text>
</g>
<!-- AppService&#45;&gt;AppModule -->
<g id="edge3" class="edge">
<title>AppService&#45;&gt;AppModule</title>
<path fill="none" stroke="black" d="M128.9,-76.67C128.9,-76.67 128.9,-103.71 128.9,-103.71"/>
<polygon fill="black" stroke="black" points="125.4,-103.71 128.9,-113.71 132.4,-103.71 125.4,-103.71"/>
</g>
</g>
</svg>
